<svg width="39" height="56" viewBox="0 0 39 56" fill="none" xmlns="http://www.w3.org/2000/svg">
<g clip-path="url(#clip0_1_7)">
<path d="M1.85071 41.9263H19.291H36.7313" stroke="#7EB693" stroke-width="2" stroke-miterlimit="10"/>
<path d="M5.79102 48.3579H19.291H32.791" stroke="#7EB693" stroke-width="2" stroke-miterlimit="10"/>
<path d="M18.791 1.35791V8.35791V15.3579" stroke="#7EB693" stroke-width="2" stroke-miterlimit="10"/>
<path d="M18.8656 14.6421V41.0737" stroke="#7EB693" stroke-width="2" stroke-miterlimit="10"/>
<path d="M29.9253 4.41064L18.8656 15.4949" stroke="#7EB693" stroke-width="2" stroke-miterlimit="10"/>
<path d="M34.179 8.67383L18.8656 24.0212" stroke="#7EB693" stroke-width="2" stroke-miterlimit="10"/>
<path d="M36.7313 15.4946L18.8656 32.5473" stroke="#7EB693" stroke-width="2" stroke-miterlimit="10"/>
<path d="M37.582 23.1685L18.8656 41.9264" stroke="#7EB693" stroke-width="2" stroke-miterlimit="10"/>
<path d="M37.5821 31.6948L27.3731 41.9264" stroke="#7EB693" stroke-width="2" stroke-miterlimit="10"/>
<path d="M1 31.6948L11.209 41.9264" stroke="#7EB693" stroke-width="2" stroke-miterlimit="10"/>
<path d="M8.65668 4.41064L18.8656 15.4949" stroke="#7EB693" stroke-width="2" stroke-miterlimit="10"/>
<path d="M4.40295 8.67383L18.8656 24.0212" stroke="#7EB693" stroke-width="2" stroke-miterlimit="10"/>
<path d="M1.85071 14.6421L18.8656 32.5474" stroke="#7EB693" stroke-width="2" stroke-miterlimit="10"/>
<path d="M1 22.3159L18.8657 41.0738" stroke="#7EB693" stroke-width="2" stroke-miterlimit="10"/>
<path d="M19.291 54.7158C9.19019 54.7158 1 46.2635 1 35.8351V19.8806C1 9.45419 9.19019 1 19.291 1C29.3937 1 37.5821 9.45419 37.5821 19.8806V35.8351C37.5839 46.2635 29.3937 54.7158 19.291 54.7158Z" stroke="#7EB693" stroke-width="2" stroke-miterlimit="10"/>
</g>
<defs>
<clipPath id="clip0_1_7">
<rect width="39" height="56" fill="white"/>
</clipPath>
</defs>
</svg>
