<svg width="13" height="12" viewBox="0 0 13 12" fill="none" xmlns="http://www.w3.org/2000/svg">
<path d="M10.8633 2.58866C10.6249 2.58866 10.3919 2.52059 10.1937 2.39307C9.9956 2.26555 9.8411 2.0843 9.7499 1.87224C9.6587 1.66017 9.6348 1.42683 9.6813 1.20171C9.7278 0.976582 9.8426 0.769792 10.0111 0.607492C10.1797 0.445192 10.3944 0.334652 10.6282 0.289872C10.862 0.245102 11.1043 0.268082 11.3245 0.355922C11.5447 0.443752 11.7329 0.592502 11.8654 0.783352C11.9978 0.974202 12.0685 1.19858 12.0685 1.42812C12.0688 1.58061 12.0379 1.73167 11.9774 1.87262C11.917 2.01357 11.8282 2.14164 11.7163 2.24947C11.6043 2.3573 11.4713 2.44278 11.3249 2.50098C11.1785 2.55919 11.0217 2.58898 10.8633 2.58866ZM5.64102 3.36207C6.2767 3.36207 6.8981 3.54359 7.4266 3.88366C7.9551 4.22373 8.3671 4.70709 8.6103 5.27262C8.8536 5.83814 8.9172 6.46042 8.7932 7.06077C8.6692 7.66116 8.3631 8.21256 7.9136 8.64546C7.4641 9.07826 6.8915 9.37306 6.268 9.49246C5.64458 9.61186 4.99837 9.55056 4.4111 9.31636C3.82382 9.08206 3.32187 8.68536 2.96872 8.17646C2.61557 7.66746 2.42707 7.0691 2.42707 6.45699C2.42798 5.63643 2.76689 4.84974 3.36942 4.26952C3.97196 3.6893 4.78891 3.36295 5.64102 3.36207ZM5.64102 1.81482C4.68757 1.81482 3.75554 2.08708 2.96278 2.59717C2.17002 3.10726 1.55214 3.83226 1.18727 4.68051C0.822399 5.52875 0.726939 6.46214 0.912939 7.36266C1.09895 8.26316 1.55808 9.09026 2.23227 9.73946C2.90645 10.3887 3.76542 10.8309 4.70055 11.01C5.63567 11.1891 6.605 11.0972 7.4858 10.7458C8.3667 10.3945 9.1196 9.79946 9.6493 9.03606C10.179 8.27266 10.4617 7.37516 10.4617 6.45699C10.4617 5.22581 9.9538 4.04506 9.0498 3.17448C8.1457 2.30391 6.9196 1.81482 5.64102 1.81482Z" fill="#274C5B"/>
</svg>
