<svg width="24" height="21" viewBox="0 0 24 21" fill="none" xmlns="http://www.w3.org/2000/svg">
<path d="M11.0641 1.03276C11.3717 0.129056 12.6498 0.129056 12.9574 1.03276L14.9256 6.81519C15.0636 7.22046 15.4442 7.49297 15.8723 7.49297H22.1391C23.119 7.49297 23.5142 8.75622 22.709 9.31472L17.7202 12.7746C17.3534 13.029 17.1996 13.4958 17.3435 13.9185L19.2677 19.5716C19.5785 20.4848 18.5438 21.2653 17.7511 20.7155L12.5806 17.1296C12.2379 16.8919 11.7836 16.8919 11.4408 17.1296L6.2703 20.7155C5.47764 21.2653 4.44291 20.4848 4.75375 19.5716L6.67795 13.9185C6.82182 13.4958 6.66806 13.029 6.30118 12.7746L1.31242 9.31472C0.507179 8.75622 0.902369 7.49297 1.88231 7.49297H8.14918C8.57728 7.49297 8.95788 7.22046 9.09578 6.81519L11.0641 1.03276Z" fill="#FFA858"/>
</svg>
